<mxfile host="app.diagrams.net" agent="Mozilla/5.0 (Windows NT 10.0; Win64; x64) AppleWebKit/537.36 (KHTML, like Gecko) Chrome/133.0.0.0 Safari/537.36 Edg/133.0.0.0" version="26.0.16">
  <diagram name="Page-1" id="oFdJWoArPh4DE6rnn9R_">
    <mxGraphModel dx="2037" dy="1067" grid="1" gridSize="10" guides="1" tooltips="1" connect="1" arrows="1" fold="1" page="1" pageScale="1" pageWidth="827" pageHeight="1169" math="0" shadow="0">
      <root>
        <mxCell id="0" />
        <mxCell id="1" parent="0" />
        <mxCell id="DNofbDAp4UMnyWNRKpoe-1" style="edgeStyle=orthogonalEdgeStyle;rounded=0;orthogonalLoop=1;jettySize=auto;html=1;entryX=0;entryY=0.5;entryDx=0;entryDy=0;" edge="1" parent="1" source="DNofbDAp4UMnyWNRKpoe-2" target="DNofbDAp4UMnyWNRKpoe-4">
          <mxGeometry relative="1" as="geometry" />
        </mxCell>
        <mxCell id="DNofbDAp4UMnyWNRKpoe-2" value="" style="ellipse;whiteSpace=wrap;html=1;fillColor=#dae8fc;strokeColor=#6c8ebf;" vertex="1" parent="1">
          <mxGeometry x="40" y="210" width="120" height="80" as="geometry" />
        </mxCell>
        <mxCell id="DNofbDAp4UMnyWNRKpoe-3" value="lista de tipos" style="swimlane;fontStyle=0;childLayout=stackLayout;horizontal=1;startSize=30;horizontalStack=0;resizeParent=1;resizeParentMax=0;resizeLast=0;collapsible=1;marginBottom=0;whiteSpace=wrap;html=1;" vertex="1" parent="1">
          <mxGeometry x="240" y="205" width="140" height="90" as="geometry" />
        </mxCell>
        <mxCell id="DNofbDAp4UMnyWNRKpoe-4" value="descricao" style="text;strokeColor=none;fillColor=none;align=left;verticalAlign=middle;spacingLeft=4;spacingRight=4;overflow=hidden;points=[[0,0.5],[1,0.5]];portConstraint=eastwest;rotatable=0;whiteSpace=wrap;html=1;" vertex="1" parent="DNofbDAp4UMnyWNRKpoe-3">
          <mxGeometry y="30" width="140" height="30" as="geometry" />
        </mxCell>
        <mxCell id="DNofbDAp4UMnyWNRKpoe-5" value="observacao" style="text;strokeColor=none;fillColor=none;align=left;verticalAlign=middle;spacingLeft=4;spacingRight=4;overflow=hidden;points=[[0,0.5],[1,0.5]];portConstraint=eastwest;rotatable=0;whiteSpace=wrap;html=1;" vertex="1" parent="DNofbDAp4UMnyWNRKpoe-3">
          <mxGeometry y="60" width="140" height="30" as="geometry" />
        </mxCell>
        <mxCell id="DNofbDAp4UMnyWNRKpoe-6" value="" style="edgeStyle=orthogonalEdgeStyle;rounded=0;orthogonalLoop=1;jettySize=auto;html=1;" edge="1" parent="1" source="DNofbDAp4UMnyWNRKpoe-7" target="DNofbDAp4UMnyWNRKpoe-10">
          <mxGeometry relative="1" as="geometry" />
        </mxCell>
        <mxCell id="DNofbDAp4UMnyWNRKpoe-7" value="cadastrar tipos" style="rounded=1;whiteSpace=wrap;html=1;" vertex="1" parent="1">
          <mxGeometry x="480" y="210" width="120" height="60" as="geometry" />
        </mxCell>
        <mxCell id="DNofbDAp4UMnyWNRKpoe-8" style="edgeStyle=orthogonalEdgeStyle;rounded=0;orthogonalLoop=1;jettySize=auto;html=1;entryX=-0.025;entryY=0.658;entryDx=0;entryDy=0;entryPerimeter=0;" edge="1" parent="1" source="DNofbDAp4UMnyWNRKpoe-4" target="DNofbDAp4UMnyWNRKpoe-7">
          <mxGeometry relative="1" as="geometry" />
        </mxCell>
        <mxCell id="DNofbDAp4UMnyWNRKpoe-9" value="" style="edgeStyle=orthogonalEdgeStyle;rounded=0;orthogonalLoop=1;jettySize=auto;html=1;entryX=0.5;entryY=0;entryDx=0;entryDy=0;" edge="1" parent="1" source="DNofbDAp4UMnyWNRKpoe-10" target="DNofbDAp4UMnyWNRKpoe-12">
          <mxGeometry relative="1" as="geometry" />
        </mxCell>
        <mxCell id="DNofbDAp4UMnyWNRKpoe-10" value="modal" style="whiteSpace=wrap;html=1;rounded=1;" vertex="1" parent="1">
          <mxGeometry x="480" y="350" width="120" height="60" as="geometry" />
        </mxCell>
        <mxCell id="DNofbDAp4UMnyWNRKpoe-11" style="edgeStyle=orthogonalEdgeStyle;rounded=0;orthogonalLoop=1;jettySize=auto;html=1;entryX=0.5;entryY=0;entryDx=0;entryDy=0;" edge="1" parent="1" source="DNofbDAp4UMnyWNRKpoe-12" target="DNofbDAp4UMnyWNRKpoe-16">
          <mxGeometry relative="1" as="geometry" />
        </mxCell>
        <mxCell id="DNofbDAp4UMnyWNRKpoe-12" value="inputs" style="swimlane;fontStyle=0;childLayout=stackLayout;horizontal=1;startSize=30;horizontalStack=0;resizeParent=1;resizeParentMax=0;resizeLast=0;collapsible=1;marginBottom=0;whiteSpace=wrap;html=1;" vertex="1" parent="1">
          <mxGeometry x="470" y="450" width="140" height="90" as="geometry" />
        </mxCell>
        <mxCell id="DNofbDAp4UMnyWNRKpoe-13" value="descricao" style="text;strokeColor=none;fillColor=none;align=left;verticalAlign=middle;spacingLeft=4;spacingRight=4;overflow=hidden;points=[[0,0.5],[1,0.5]];portConstraint=eastwest;rotatable=0;whiteSpace=wrap;html=1;" vertex="1" parent="DNofbDAp4UMnyWNRKpoe-12">
          <mxGeometry y="30" width="140" height="30" as="geometry" />
        </mxCell>
        <mxCell id="DNofbDAp4UMnyWNRKpoe-14" value="observacao" style="text;strokeColor=none;fillColor=none;align=left;verticalAlign=middle;spacingLeft=4;spacingRight=4;overflow=hidden;points=[[0,0.5],[1,0.5]];portConstraint=eastwest;rotatable=0;whiteSpace=wrap;html=1;" vertex="1" parent="DNofbDAp4UMnyWNRKpoe-12">
          <mxGeometry y="60" width="140" height="30" as="geometry" />
        </mxCell>
        <mxCell id="DNofbDAp4UMnyWNRKpoe-15" value="" style="edgeStyle=orthogonalEdgeStyle;rounded=0;orthogonalLoop=1;jettySize=auto;html=1;" edge="1" parent="1" source="DNofbDAp4UMnyWNRKpoe-16" target="DNofbDAp4UMnyWNRKpoe-21">
          <mxGeometry relative="1" as="geometry" />
        </mxCell>
        <mxCell id="DNofbDAp4UMnyWNRKpoe-16" value="salvar" style="whiteSpace=wrap;html=1;rounded=1;" vertex="1" parent="1">
          <mxGeometry x="480" y="600" width="120" height="60" as="geometry" />
        </mxCell>
        <mxCell id="DNofbDAp4UMnyWNRKpoe-17" value="" style="edgeStyle=orthogonalEdgeStyle;rounded=0;orthogonalLoop=1;jettySize=auto;html=1;" edge="1" parent="1" source="DNofbDAp4UMnyWNRKpoe-21" target="DNofbDAp4UMnyWNRKpoe-22">
          <mxGeometry relative="1" as="geometry" />
        </mxCell>
        <mxCell id="DNofbDAp4UMnyWNRKpoe-18" value="yes" style="edgeLabel;html=1;align=center;verticalAlign=middle;resizable=0;points=[];fontColor=#33FF33;fontStyle=1" vertex="1" connectable="0" parent="DNofbDAp4UMnyWNRKpoe-17">
          <mxGeometry x="-0.0444" y="-3" relative="1" as="geometry">
            <mxPoint as="offset" />
          </mxGeometry>
        </mxCell>
        <mxCell id="DNofbDAp4UMnyWNRKpoe-19" value="" style="edgeStyle=orthogonalEdgeStyle;rounded=0;orthogonalLoop=1;jettySize=auto;html=1;fontStyle=1" edge="1" parent="1" source="DNofbDAp4UMnyWNRKpoe-21" target="DNofbDAp4UMnyWNRKpoe-23">
          <mxGeometry relative="1" as="geometry" />
        </mxCell>
        <mxCell id="DNofbDAp4UMnyWNRKpoe-20" value="no" style="edgeLabel;html=1;align=center;verticalAlign=middle;resizable=0;points=[];fontColor=#EA6B66;" vertex="1" connectable="0" parent="DNofbDAp4UMnyWNRKpoe-19">
          <mxGeometry x="-0.2519" relative="1" as="geometry">
            <mxPoint as="offset" />
          </mxGeometry>
        </mxCell>
        <mxCell id="DNofbDAp4UMnyWNRKpoe-21" value="validar?" style="rhombus;whiteSpace=wrap;html=1;rounded=1;fillColor=#fff2cc;strokeColor=#d6b656;" vertex="1" parent="1">
          <mxGeometry x="700" y="590" width="80" height="80" as="geometry" />
        </mxCell>
        <mxCell id="DNofbDAp4UMnyWNRKpoe-22" value="fecha modal" style="whiteSpace=wrap;html=1;rounded=1;" vertex="1" parent="1">
          <mxGeometry x="680" y="440" width="120" height="60" as="geometry" />
        </mxCell>
        <mxCell id="DNofbDAp4UMnyWNRKpoe-23" value="mostrar erro, voltar ao modal" style="whiteSpace=wrap;html=1;rounded=1;" vertex="1" parent="1">
          <mxGeometry x="680" y="760" width="120" height="60" as="geometry" />
        </mxCell>
      </root>
    </mxGraphModel>
  </diagram>
</mxfile>
